<?xml version="1.0" encoding="UTF-8" standalone="no"?><!DOCTYPE svg PUBLIC "-//W3C//DTD SVG 1.1//EN" "http://www.w3.org/Graphics/SVG/1.1/DTD/svg11.dtd">
<svg width="100%" height="100%" viewBox="0 0 100 100" version="1.1"
    xmlns="http://www.w3.org/2000/svg"
    xmlns:xlink="http://www.w3.org/1999/xlink" xml:space="preserve"
    xmlns:serif="http://www.serif.com/" style="fill-rule:evenodd;clip-rule:evenodd;stroke-linejoin:round;stroke-miterlimit:2;">
    <g>
        <path d="M95.097,11.498c0.897,-0.634 1.11,-1.876 0.475,-2.773c-0.635,-0.897 -1.876,-1.11 -2.773,-0.475l-4.969,3.516c-0.897,0.634 -1.11,1.876 -0.475,2.773c0.387,0.548 1.002,0.841 1.625,0.841c0.398,-0 0.799,-0.119 1.148,-0.367l4.969,-3.515Z" style="fill-rule:nonzero;"/>
        <path d="M81.933,10.355c0.23,0.086 0.467,0.128 0.699,0.128c0.805,-0 1.563,-0.493 1.863,-1.291l2.142,-5.698c0.387,-1.028 -0.133,-2.175 -1.162,-2.562c-1.028,-0.387 -2.176,0.134 -2.563,1.162l-2.142,5.698c-0.386,1.028 0.134,2.176 1.163,2.563Z" style="fill-rule:nonzero;"/>
        <path d="M97.571,19.051l-0.041,-0l-6.085,0.051c-1.099,0.022 -1.971,0.864 -1.949,1.963c0.022,1.084 0.908,1.965 1.988,1.965l0.042,0l6.085,-0.103c1.099,-0.023 1.971,-0.906 1.949,-2.005c-0.022,-1.085 -0.908,-1.871 -1.989,-1.871Z" style="fill-rule:nonzero;"/>
        <path d="M85.294,49.408c-1.019,-0.807 -2.226,-1.356 -3.501,-1.614c0.084,-0.152 0.163,-0.307 0.237,-0.465l0.799,-0.799c3.075,-3.075 3.398,-7.917 0.75,-11.262c-1.25,-1.578 -2.985,-2.628 -4.912,-3.019c0.138,-0.254 0.26,-0.513 0.371,-0.776c2.094,-3.034 2.06,-7.111 -0.259,-10.042c-1.251,-1.58 -2.986,-2.632 -4.914,-3.023c1.591,-2.927 1.388,-6.575 -0.738,-9.261c-1.608,-2.031 -4.016,-3.196 -6.607,-3.196c-2.075,-0 -4.033,0.741 -5.569,2.099c-0.232,-1.32 -0.783,-2.594 -1.662,-3.704c-1.608,-2.031 -4.016,-3.196 -6.607,-3.197c-2.252,0 -4.365,0.874 -5.951,2.46l-20.176,20.176l-0.077,-2.693c-0.036,-4.586 -3.778,-8.306 -8.372,-8.306c-4.512,-0 -8.201,3.586 -8.367,8.057l-4.028,29.284l-3.31,3.848c-1.984,2.307 -1.851,5.797 0.303,7.947l4.92,4.912c-1.516,2.281 -1.251,5.394 0.732,7.371l23.103,23.067c1.104,1.101 2.569,1.707 4.127,1.707c1.279,-0 2.543,-0.429 3.558,-1.209l4.823,-3.703c4.64,-1.096 9.755,-3.586 15.213,-7.405c4.766,-3.336 9.936,-7.78 15.366,-13.211l11.484,-11.484c1.694,-1.694 2.585,-4.042 2.446,-6.442c-0.139,-2.397 -1.299,-4.626 -3.182,-6.117Zm-21.912,-38.184c0.863,-0.863 2,-1.294 3.138,-1.294c1.298,-0 2.596,0.562 3.487,1.686c1.411,1.783 1.164,4.371 -0.445,5.979l-2.048,2.048c-0.316,0.21 -0.623,0.436 -0.911,0.691c-0.232,-1.32 -0.784,-2.595 -1.662,-3.704c-1.08,-1.365 -2.522,-2.336 -4.137,-2.828l2.578,-2.578Zm-13.838,-4.801c0.863,-0.863 2.001,-1.294 3.138,-1.294c1.299,0 2.597,0.562 3.487,1.687c1.411,1.783 1.164,4.37 -0.444,5.978l-23.518,23.275l-0.077,-2.692c-0.021,-2.595 -1.227,-4.912 -3.103,-6.436l20.517,-20.518Zm-44.03,52.681c-0.69,-0.689 -0.732,-1.794 -0.096,-2.534l4.072,-4.734c0.002,-0.003 0.004,-0.006 0.004,-0.009l4.219,-30.669c-0,-2.416 1.976,-4.393 4.393,-4.393c2.416,0 4.393,1.977 4.393,4.393l0.114,3.991c-3.975,0.546 -7.071,3.891 -7.222,7.978l-4.028,29.284l-1.172,1.362l-4.677,-4.669Zm77.702,0.049l-11.484,11.484c-9.808,9.808 -20.061,17.681 -29.067,19.644c-0.274,0.06 -0.531,0.175 -0.753,0.346l-5.192,3.987c-0.336,0.258 -0.736,0.385 -1.134,0.385c-0.478,0 -0.955,-0.184 -1.315,-0.544l-23.105,-23.067c-0.69,-0.689 -0.732,-1.794 -0.096,-2.534l4.072,-4.734c0.003,-0.003 0.004,-0.006 0.005,-0.009l4.217,-30.669c0,-2.416 1.977,-4.393 4.394,-4.393c2.416,-0 4.393,1.977 4.393,4.393l0.207,7.237c0.035,1.203 1.024,1.986 2.053,1.986c0.502,-0 1.014,-0.187 1.429,-0.601l23.356,-23.357c0.864,-0.863 2,-1.294 3.138,-1.294c1.298,0 2.597,0.562 3.487,1.687c1.412,1.783 1.164,4.37 -0.444,5.978l-16.09,16.09c-0.835,0.835 -0.835,2.189 0,3.024c0.423,0.423 0.977,0.635 1.531,0.635c0.555,-0 1.109,-0.212 1.531,-0.635l20.685,-20.684c0.863,-0.863 2,-1.294 3.138,-1.294c1.298,0 2.597,0.562 3.487,1.687c1.411,1.783 1.163,4.37 -0.445,5.978l-20.587,20.587c-0.847,0.847 -0.847,2.219 0,3.066c0.417,0.417 0.964,0.626 1.511,0.626c0.546,0 1.093,-0.209 1.51,-0.626l16.187,-16.186c0.863,-0.863 2,-1.294 3.138,-1.294c1.298,-0 2.597,0.562 3.487,1.687c1.411,1.782 1.163,4.37 -0.445,5.978l-16.033,16.033c-0.866,0.866 -0.866,2.271 0,3.137l0.026,0.026c0.4,0.4 0.925,0.6 1.449,0.6c0.525,0 1.049,-0.2 1.449,-0.6l9.94,-9.94c0.896,-0.896 2.095,-1.369 3.29,-1.369c0.951,-0 1.899,0.3 2.689,0.925c2.109,1.669 2.239,4.776 0.391,6.624Z" style="fill-rule:nonzero;"/>
    </g>
</svg>