<?xml version="1.0" encoding="UTF-8" standalone="no"?><!DOCTYPE svg PUBLIC "-//W3C//DTD SVG 1.1//EN" "http://www.w3.org/Graphics/SVG/1.1/DTD/svg11.dtd">
<svg width="100%" height="100%" viewBox="0 0 24 24" version="1.1"
    xmlns="http://www.w3.org/2000/svg"
    xmlns:xlink="http://www.w3.org/1999/xlink" xml:space="preserve"
    xmlns:serif="http://www.serif.com/" style="fill-rule:evenodd;clip-rule:evenodd;stroke-linejoin:round;stroke-miterlimit:2;">
    <g>
        <path d="M22.823,2.76c0.216,-0.153 0.267,-0.451 0.114,-0.666c-0.152,-0.215 -0.45,-0.266 -0.665,-0.114l-1.193,0.844c-0.215,0.152 -0.266,0.45 -0.114,0.665c0.093,0.132 0.241,0.202 0.39,0.202c0.096,0 0.192,-0.028 0.276,-0.088l1.192,-0.843Z" style="fill-rule:nonzero;"/>
        <path d="M19.664,2.485c0.055,0.021 0.112,0.031 0.168,0.031c0.193,-0 0.375,-0.118 0.447,-0.31l0.514,-1.367c0.093,-0.247 -0.032,-0.523 -0.279,-0.615c-0.247,-0.093 -0.522,0.032 -0.615,0.279l-0.514,1.367c-0.093,0.247 0.032,0.522 0.279,0.615Z" style="fill-rule:nonzero;"/>
        <path d="M23.417,4.572l-0.01,0l-1.46,0.012c-0.264,0.006 -0.473,0.208 -0.468,0.471c0.005,0.261 0.218,0.472 0.477,0.472l0.01,0l1.461,-0.025c0.263,-0.005 0.473,-0.217 0.467,-0.481c-0.005,-0.26 -0.218,-0.449 -0.477,-0.449Z" style="fill-rule:nonzero;"/>
        <path d="M20.471,11.858c-0.245,-0.194 -0.535,-0.325 -0.841,-0.387c0.021,-0.037 0.039,-0.074 0.057,-0.112l0.192,-0.192c0.738,-0.738 0.815,-1.9 0.18,-2.703c-0.3,-0.379 -0.716,-0.63 -1.179,-0.724c0.033,-0.061 0.062,-0.123 0.089,-0.186c0.503,-0.729 0.495,-1.707 -0.062,-2.411c-0.3,-0.379 -0.717,-0.631 -1.18,-0.725c0.383,-0.703 0.334,-1.578 -0.177,-2.223c-0.385,-0.487 -0.963,-0.767 -1.585,-0.767c-0.498,0 -0.968,0.178 -1.337,0.504c-0.055,-0.317 -0.188,-0.623 -0.399,-0.889c-0.386,-0.487 -0.963,-0.767 -1.585,-0.767c-0.541,-0 -1.048,0.21 -1.429,0.59l-4.842,4.842l-0.018,-0.646c-0.009,-1.101 -0.907,-1.993 -2.01,-1.993c-1.082,-0 -1.968,0.86 -2.008,1.933l-0.966,7.029l-0.795,0.923c-0.476,0.554 -0.444,1.391 0.073,1.907l1.181,1.179c-0.364,0.548 -0.3,1.295 0.175,1.769l5.545,5.536c0.265,0.265 0.617,0.41 0.991,0.41c0.307,-0 0.61,-0.103 0.854,-0.29l1.157,-0.889c1.114,-0.263 2.341,-0.861 3.651,-1.777c1.144,-0.801 2.385,-1.867 3.688,-3.171l2.756,-2.756c0.407,-0.406 0.621,-0.97 0.587,-1.546c-0.033,-0.575 -0.312,-1.11 -0.763,-1.468Zm-5.259,-9.164c0.207,-0.207 0.48,-0.311 0.753,-0.311c0.311,0 0.623,0.135 0.837,0.405c0.338,0.428 0.279,1.049 -0.107,1.435l-0.492,0.491c-0.075,0.051 -0.149,0.105 -0.218,0.166c-0.056,-0.317 -0.188,-0.623 -0.399,-0.889c-0.259,-0.327 -0.605,-0.56 -0.993,-0.679l0.619,-0.618Zm-3.321,-1.152c0.207,-0.208 0.48,-0.311 0.753,-0.311c0.311,0 0.623,0.135 0.837,0.405c0.338,0.428 0.279,1.049 -0.107,1.435l-5.644,5.586l-0.019,-0.647c-0.005,-0.622 -0.294,-1.179 -0.745,-1.544l4.925,-4.924Zm-10.568,12.643c-0.165,-0.165 -0.175,-0.431 -0.023,-0.608l0.978,-1.136c0,-0.001 0.001,-0.002 0.001,-0.002l1.012,-7.361c0,-0.58 0.474,-1.054 1.054,-1.054c0.58,-0 1.055,0.474 1.055,1.054l0.027,0.958c-0.954,0.131 -1.697,0.934 -1.733,1.914l-0.967,7.029l-0.281,0.327l-1.123,-1.121Zm18.649,0.012l-2.756,2.756c-2.354,2.354 -4.815,4.243 -6.976,4.715c-0.066,0.014 -0.128,0.042 -0.181,0.083l-1.246,0.956c-0.081,0.062 -0.177,0.093 -0.272,0.093c-0.115,-0 -0.229,-0.044 -0.316,-0.131l-5.545,-5.536c-0.166,-0.165 -0.176,-0.43 -0.023,-0.608l0.977,-1.136c0.001,-0.001 0.001,-0.002 0.001,-0.002l1.012,-7.361c0,-0.58 0.475,-1.054 1.055,-1.054c0.58,-0 1.054,0.474 1.054,1.054l0.05,1.737c0.008,0.289 0.246,0.477 0.493,0.477c0.12,-0 0.243,-0.045 0.343,-0.145l5.605,-5.605c0.207,-0.207 0.48,-0.311 0.753,-0.311c0.312,0 0.623,0.135 0.837,0.405c0.339,0.428 0.279,1.049 -0.107,1.435l-3.861,3.861c-0.201,0.201 -0.201,0.526 -0,0.726c0.101,0.102 0.234,0.152 0.367,0.152c0.133,0 0.266,-0.05 0.368,-0.152l4.964,-4.964c0.207,-0.207 0.48,-0.311 0.753,-0.311c0.312,0 0.623,0.135 0.837,0.405c0.339,0.428 0.279,1.049 -0.107,1.435l-4.941,4.941c-0.203,0.203 -0.203,0.532 0,0.736c0.101,0.1 0.232,0.15 0.363,0.15c0.131,-0 0.262,-0.05 0.363,-0.15l3.884,-3.885c0.208,-0.207 0.48,-0.311 0.753,-0.311c0.312,0 0.624,0.135 0.837,0.405c0.339,0.428 0.28,1.049 -0.106,1.435l-3.848,3.848c-0.208,0.208 -0.208,0.545 -0,0.753l0.006,0.006c0.096,0.096 0.222,0.144 0.348,0.144c0.126,0 0.252,-0.048 0.347,-0.144l2.386,-2.385c0.215,-0.215 0.503,-0.329 0.79,-0.329c0.228,-0 0.455,0.072 0.645,0.222c0.506,0.401 0.537,1.146 0.094,1.59Z" style="fill-rule:nonzero;"/>
    </g>
</svg>