<?xml version="1.0" encoding="UTF-8" standalone="no"?><!DOCTYPE svg PUBLIC "-//W3C//DTD SVG 1.1//EN" "http://www.w3.org/Graphics/SVG/1.1/DTD/svg11.dtd">
<svg width="100%" height="100%" viewBox="0 0 24 24" version="1.1"
    xmlns="http://www.w3.org/2000/svg"
    xmlns:xlink="http://www.w3.org/1999/xlink" xml:space="preserve"
    xmlns:serif="http://www.serif.com/" style="fill-rule:evenodd;clip-rule:evenodd;stroke-linejoin:round;stroke-miterlimit:2;">
    <g>
        <g>
            <g>
                <path d="M11.618,16.098c-0.686,-0 -1.242,0.571 -1.242,1.258c0,0.67 0.54,1.258 1.242,1.258c0.703,-0 1.258,-0.588 1.258,-1.258c0,-0.687 -0.571,-1.258 -1.258,-1.258Z" style="fill-rule:nonzero;"/>
                <path d="M11.831,6.572c-2.206,-0 -3.219,1.307 -3.219,2.189c-0,0.637 0.539,0.932 0.98,0.932c0.882,-0 0.523,-1.259 2.19,-1.259c0.817,0 1.47,0.36 1.47,1.112c0,0.882 -0.915,1.388 -1.454,1.846c-0.474,0.408 -1.095,1.078 -1.095,2.483c0,0.85 0.229,1.095 0.899,1.095c0.801,0 0.964,-0.359 0.964,-0.67c-0,-0.849 0.016,-1.34 0.915,-2.042c0.441,-0.343 1.83,-1.454 1.83,-2.99c-0,-1.536 -1.389,-2.696 -3.48,-2.696Z" style="fill-rule:nonzero;"/>
                <path d="M11.986,0.009c-6.632,0 -12,5.367 -12,12l-0,11.063c-0,0.517 0.42,0.937 0.937,0.937l11.063,0c6.632,0 12,-5.367 12,-12c-0,-6.632 -5.367,-12 -12,-12Zm-0,22.125l-10.125,0l-0,-10.125c-0,-5.596 4.528,-10.125 10.125,-10.125c5.596,0 10.125,4.529 10.125,10.125c-0,5.596 -4.529,10.125 -10.125,10.125Z" style="fill-rule:nonzero;"/>
            </g>
        </g>
    </g>
</svg>