<?xml version="1.0" encoding="UTF-8" standalone="no"?><!DOCTYPE svg PUBLIC "-//W3C//DTD SVG 1.1//EN" "http://www.w3.org/Graphics/SVG/1.1/DTD/svg11.dtd"><svg width="100%" height="100%" viewBox="0 0 512 512" version="1.1" xmlns="http://www.w3.org/2000/svg" xmlns:xlink="http://www.w3.org/1999/xlink" xml:space="preserve" xmlns:serif="http://www.serif.com/" style="fill-rule:evenodd;clip-rule:evenodd;stroke-linejoin:round;stroke-miterlimit:2;"><g id="XMLID_59_"><g id="XMLID_607_"><text x="214.781px" y="382.46px" style="font-family:'PTSerif-Regular', 'PT Serif', sans-serif;font-size:334.448px;">R</text><path id="XMLID_608_" d="M502,107.758c5.522,0 10,-4.477 10,-10l0,-67.758c0,-5.522 -4.478,-10 -10,-10l-67.808,0c-5.523,0 -10,4.478 -10,10c0,6.949 -5.653,12.603 -12.603,12.603c-6.949,0 -12.603,-5.653 -12.603,-12.603c0,-5.522 -4.478,-10 -10,-10l-45.204,0c-5.522,0 -10,4.478 -10,10c0,6.949 -5.653,12.603 -12.603,12.603c-6.949,0 -12.603,-5.653 -12.603,-12.603c0,-5.522 -4.478,-10 -10,-10l-45.205,0c-5.522,0 -10,4.478 -10,10c0,6.949 -5.653,12.603 -12.602,12.603c-6.949,0 -12.603,-5.653 -12.603,-12.603c0,-5.522 -4.478,-10 -10,-10l-67.808,0c-5.522,0 -10,4.478 -10,10l0,67.808c0,5.522 4.478,10 10,10c6.949,0 12.603,5.653 12.603,12.603c0,6.948 -5.653,12.602 -12.603,12.602c-5.522,0 -10,4.478 -10,10l0,27.225c-6.498,1.48 -12.669,4.735 -17.719,9.785l-17.176,17.178c-6.49,6.489 -17.05,6.489 -23.538,0l-17.175,-17.179c-14.287,-14.285 -37.533,-14.285 -51.82,0c-3.906,3.905 -3.906,10.236 -0.001,14.142c3.906,3.906 10.237,3.907 14.142,0.001c6.489,-6.489 17.049,-6.489 23.538,0l17.178,17.178c14.287,14.285 37.534,14.285 51.821,0l17.176,-17.178c6.489,-6.489 17.049,-6.489 23.538,0l17.178,17.178c14.287,14.285 37.534,14.285 51.821,0l17.176,-17.178c6.489,-6.489 17.049,-6.489 23.538,0l17.178,17.178c7.144,7.144 16.527,10.715 25.911,10.715c9.383,0 18.767,-3.571 25.91,-10.715c3.905,-3.905 3.905,-10.237 -0,-14.143c-3.906,-3.904 -10.236,-3.904 -14.143,0c-3.143,3.144 -7.322,4.874 -11.768,4.874c-4.445,0 -8.625,-1.73 -11.768,-4.874l-17.179,-17.178c-14.287,-14.285 -37.534,-14.285 -51.821,0l-5.841,5.842l0,-77.864l209.333,0l0,103c0,5.523 4.477,10 10,10c5.522,0 10,-4.477 10,-10l0,-113c0,-5.522 -4.478,-10 -10,-10l-229.333,0c-5.523,0 -10,4.478 -10,10l0,103.773c-5.227,0.985 -10.837,-0.538 -14.873,-4.574l-17.178,-17.178c-4.103,-4.102 -8.946,-7.02 -14.103,-8.766l0,-19.812c13.101,-4.232 22.603,-16.544 22.603,-31.033c0,-14.49 -9.502,-26.803 -22.603,-31.034l0,-49.376l49.376,0c4.232,13.101 16.544,22.603 31.034,22.603c14.49,0 26.803,-9.502 31.034,-22.603l28.342,0c4.231,13.101 16.544,22.603 31.034,22.603c14.49,0 26.803,-9.502 31.034,-22.603l28.341,0c4.231,13.101 16.544,22.603 31.034,22.603c14.49,0 26.803,-9.502 31.034,-22.603l49.377,0l0,49.326c-13.101,4.231 -22.603,16.544 -22.603,31.034c0,14.49 9.502,26.803 22.603,31.034l0,28.342c-13.101,4.232 -22.603,16.544 -22.603,31.034c0,14.49 9.502,26.803 22.603,31.034l0,28.342c-13.101,4.231 -22.603,16.544 -22.603,31.033c0,14.49 9.502,26.804 22.603,31.035l0,28.341c-13.101,4.231 -22.603,16.544 -22.603,31.034c0,14.49 9.502,26.803 22.603,31.034l0,49.377l-49.376,0c-4.231,-13.101 -16.544,-22.603 -31.034,-22.603c-14.49,0 -26.803,9.502 -31.034,22.603l-28.341,0c-4.231,-13.101 -16.544,-22.603 -31.034,-22.603c-14.49,0 -26.803,9.502 -31.034,22.603l-28.342,0c-4.231,-13.101 -16.544,-22.603 -31.034,-22.603c-14.49,0 -26.803,9.502 -31.034,22.603l-49.376,0l0,-49.326c13.101,-4.231 22.603,-16.544 22.603,-31.034c0,-14.49 -9.502,-26.803 -22.603,-31.034l0,-35.828l17.138,17.138c7.932,7.932 18.626,11.453 29.016,10.577l0,61.507c0,5.522 4.477,10 10,10l229.333,0c5.522,0 10,-4.478 10,-10l0,-113c0,-5.523 -4.478,-10 -10,-10c-5.523,0 -10,4.477 -10,10l0,103l-209.334,0l0,-59.553c0.968,-0.788 1.905,-1.631 2.807,-2.533l17.177,-17.177c3.143,-3.144 7.323,-4.875 11.768,-4.875c4.445,0 8.625,1.731 11.769,4.875l17.178,17.176c6.921,6.922 16.123,10.733 25.91,10.733c9.788,0 18.99,-3.812 25.911,-10.733c3.905,-3.905 3.905,-10.236 -0.001,-14.142c-3.904,-3.904 -10.237,-3.905 -14.142,0.001c-3.143,3.143 -7.322,4.874 -11.768,4.874c-4.445,0 -8.624,-1.732 -11.768,-4.875l-17.178,-17.177c-14.287,-14.287 -37.535,-14.287 -51.822,0l-17.177,17.177c-3.144,3.143 -7.323,4.875 -11.769,4.875c-4.445,0 -8.625,-1.732 -11.769,-4.875l-17.177,-17.177c-14.287,-14.287 -37.535,-14.287 -51.822,0l-17.177,17.177c-3.144,3.143 -7.323,4.875 -11.769,4.875c-4.445,0 -8.625,-1.732 -11.769,-4.875l-17.177,-17.177c-14.287,-14.287 -37.535,-14.287 -51.822,0c-3.905,3.905 -3.905,10.237 0,14.143c3.906,3.904 10.236,3.904 14.143,0c6.488,-6.49 17.049,-6.49 23.537,0l17.177,17.177c6.922,6.921 16.123,10.733 25.911,10.733c9.788,0 18.989,-3.812 25.911,-10.733l17.177,-17.177c1.078,-1.078 2.285,-1.977 3.576,-2.71l0,47.008c0,5.522 4.478,10 10,10c6.949,0 12.603,5.653 12.603,12.603c0,6.949 -5.653,12.603 -12.603,12.603c-5.522,0 -10,4.478 -10,10l0,67.759c0,5.522 4.478,10 10,10l67.808,0c5.522,0 10,-4.478 10,-10c0,-6.949 5.653,-12.603 12.603,-12.603c6.949,0 12.602,5.653 12.602,12.603c0,5.522 4.478,10 10,10l45.205,0c5.522,0 10,-4.478 10,-10c0,-6.949 5.653,-12.603 12.603,-12.603c6.949,0 12.603,5.653 12.603,12.603c0,5.522 4.478,10 10,10l45.204,0c5.522,0 10,-4.478 10,-10c0,-6.949 5.653,-12.603 12.603,-12.603c6.949,0 12.603,5.653 12.603,12.603c0,5.522 4.477,10 10,10l67.807,0c5.522,0 10,-4.478 10,-10l0,-67.808c0,-5.522 -4.478,-10 -10,-10c-6.949,0 -12.603,-5.653 -12.603,-12.603c0,-6.949 5.653,-12.603 12.603,-12.603c5.522,0 10,-4.477 10,-10l0,-45.204c0,-5.522 -4.478,-10 -10,-10c-6.949,0 -12.603,-5.654 -12.603,-12.603c0,-6.948 5.653,-12.602 12.603,-12.602c5.522,0 10,-4.478 10,-10l0,-45.205c0,-5.522 -4.478,-10 -10,-10c-6.949,0 -12.603,-5.653 -12.603,-12.603c0,-6.949 5.653,-12.602 12.603,-12.602c5.522,0 10,-4.478 10,-10l0,-45.205c0,-5.523 -4.478,-10 -10,-10c-6.949,0 -12.603,-5.653 -12.603,-12.603c0.001,-6.948 5.654,-12.601 12.603,-12.601Z" style="fill:#353535;fill-rule:nonzero;"/><path id="XMLID_1612_" d="M17.072,259.451c6.489,-6.49 17.048,-6.488 23.537,0l17.178,17.178c14.287,14.285 37.534,14.285 51.821,0l17.177,-17.178c3.144,-3.144 7.323,-4.875 11.769,-4.875c4.446,0 8.625,1.731 11.769,4.875l17.178,17.178c14.287,14.285 37.534,14.285 51.821,0l17.177,-17.178c3.143,-3.144 7.323,-4.875 11.768,-4.875c4.445,0 8.625,1.731 11.769,4.875l17.178,17.178c7.144,7.144 16.527,10.715 25.911,10.715c9.383,0 18.767,-3.571 25.91,-10.715c3.905,-3.905 3.905,-10.237 0,-14.143c-3.906,-3.904 -10.236,-3.904 -14.143,0c-3.143,3.144 -7.322,4.874 -11.768,4.874c-4.445,0 -8.625,-1.73 -11.768,-4.874l-17.178,-17.178c-14.287,-14.287 -37.535,-14.287 -51.822,0l-17.176,17.178c-6.489,6.49 -17.049,6.488 -23.538,0l-17.177,-17.178c-14.287,-14.287 -37.535,-14.287 -51.822,0l-17.176,17.178c-6.49,6.49 -17.05,6.488 -23.538,0l-17.177,-17.178c-14.287,-14.287 -37.535,-14.287 -51.822,0c-3.905,3.905 -3.905,10.237 0,14.143c3.905,3.905 10.235,3.905 14.142,0Z" style="fill:#353535;fill-rule:nonzero;"/><path id="XMLID_1613_" d="M442.92,263.069c1.859,-1.859 2.93,-4.439 2.93,-7.069c0,-2.63 -1.07,-5.21 -2.93,-7.07c-1.86,-1.86 -4.44,-2.93 -7.07,-2.93c-2.64,0 -5.21,1.069 -7.08,2.93c-1.859,1.86 -2.92,4.44 -2.92,7.07c0,2.63 1.061,5.21 2.92,7.069c1.87,1.86 4.44,2.931 7.08,2.931c2.63,0 5.21,-1.07 7.07,-2.931Z" style="fill:#353535;fill-rule:nonzero;"/></g></g></svg>